<?xml version="1.0" encoding="UTF-8"?>
<svg xmlns="http://www.w3.org/2000/svg" width="1180" height="1056" viewBox="0 0 1180 1056" role="img" aria-labelledby="tplan-title tplan-desc" data-layout="vertical-execution-timeline" data-view="compact" data-schema-version="tplan.execution_cost_tree.v0.4">
<title id="tplan-title">周末补货与仓配可执行性决策 · TPlan 执行时间轴摘要</title>
<desc id="tplan-desc">纵向按首次观测时间排列真实任务节点；左侧刻度显示相对追踪起点的时间，卡片底部时间条按统一观测窗口等比例显示节点起止范围，蓝色折线保留真实父子关系。</desc>
<style>
text{font-family:-apple-system,BlinkMacSystemFont,'Segoe UI','PingFang SC','Microsoft YaHei',sans-serif}
.report-title{font-size:22px;font-weight:700;fill:#ffffff}
.mission-title{font-size:18px;font-weight:650;fill:#dbeafe}
.mission-meta{font-size:14px;fill:#dbeafe}
.legend{font-size:13px;fill:#475569}
.time-label{font-size:12px;font-variant-numeric:tabular-nums;fill:#475569}
.node-title{font-size:15px;font-weight:650;fill:#0f172a}
.node-meta{font-size:12.5px;fill:#475569}
.node-metric{font-size:13px;fill:#1e293b}
.node-result{font-size:12.5px;fill:#334155}
.status-label{font-size:12px;font-weight:650}
.tree-edge{fill:none;stroke:#3b82f6;stroke-width:1.6;opacity:.72}
.time-guide{stroke:#cbd5e1;stroke-width:1;stroke-dasharray:3 5}
.axis{stroke:#64748b;stroke-width:2}
.range-track{fill:#e2e8f0}
</style>
<rect width="1180" height="1056" fill="#f8fafc"/>
<rect x="32" y="24" width="1116" height="168" rx="18" fill="#172554" stroke="#2563eb" stroke-width="2"/>
<text x="58" y="58" class="report-title">TPlan 执行时间轴摘要</text>
<text x="58" y="88" class="mission-title">周末补货与仓配可执行性决策</text>
<text x="58" y="116" class="mission-meta">Mission · 成功 · 实际历时 4m59s</text>
<text x="58" y="140" class="mission-meta">LLM调用累计 1m20s（调用端实测） · 脚本累计 2m36s（宿主实测） · 工具累计 35s（宿主实测） · 等待累计 25s（宿主实测）</text>
<text x="58" y="164" class="mission-meta">未被精确记录 2.9s · Token ≈入 2.8k / 出 540 · 可见真实节点 4/24 · 覆盖 exact · compact</text>
<text x="32" y="220" class="legend">纵向按首次执行排序；左侧是实际相对时间，卡片底部时间条统一按观测窗口等比例。蓝线表示真实父子关系。</text>
<line x1="112" y1="324.0" x2="112" y2="882.0" class="axis"/>
<line x1="120" y1="324.0" x2="260" y2="324.0" class="time-guide"/>
<circle cx="112" cy="324.0" r="5" fill="#ffffff" stroke="#475569" stroke-width="2"/>
<text x="100" y="328.0" class="time-label" text-anchor="end">+00:00.033</text>
<line x1="120" y1="510.0" x2="260" y2="510.0" class="time-guide"/>
<circle cx="112" cy="510.0" r="5" fill="#ffffff" stroke="#475569" stroke-width="2"/>
<text x="100" y="514.0" class="time-label" text-anchor="end">+00:50.766</text>
<line x1="120" y1="696.0" x2="260" y2="696.0" class="time-guide"/>
<circle cx="112" cy="696.0" r="5" fill="#ffffff" stroke="#475569" stroke-width="2"/>
<text x="100" y="700.0" class="time-label" text-anchor="end">+02:36.654</text>
<line x1="120" y1="882.0" x2="260" y2="882.0" class="time-guide"/>
<circle cx="112" cy="882.0" r="5" fill="#ffffff" stroke="#475569" stroke-width="2"/>
<text x="100" y="886.0" class="time-label" text-anchor="end">+04:02.950</text>
<path d="M 242 192 V 324.0 H 270" class="tree-edge" data-tree-from="mission" data-tree-to="T1"/>
<path d="M 242 192 V 510.0 H 270" class="tree-edge" data-tree-from="mission" data-tree-to="T2"/>
<path d="M 242 192 V 696.0 H 270" class="tree-edge" data-tree-from="mission" data-tree-to="T3"/>
<path d="M 242 192 V 882.0 H 270" class="tree-edge" data-tree-from="mission" data-tree-to="T4"/>
<g id="node-T1" class="task-card" data-task-id="T1" data-depth="0" data-start-offset-ms="33" data-finish-offset-ms="50703">
<rect x="270" y="242" width="876" height="164" rx="14" fill="#f0fdf4" stroke="#16a34a" stroke-width="1.5"/>
<text x="288" y="270" class="node-title">[Task] 建立库存与销售基线 · T1</text>
<rect x="1052" y="255" width="76" height="24" rx="12" fill="#16a34a" opacity=".13"/>
<text x="1090" y="272" class="status-label" text-anchor="middle" fill="#14532d">✓ 成功</text>
<text x="288" y="296" class="node-meta">#1 · 子树汇总 · +00:00.033 → +00:50.703 · 实际历时 51s</text>
<text x="288" y="322" class="node-metric">LLM调用累计 未采集 · 脚本累计 50s（宿主实测）</text>
<text x="288" y="347" class="node-metric">工具累计 未采集 · 等待累计 未采集 · Token 未采集</text>
<text x="288" y="370" class="node-result">结果：经营数据基线通过验收</text>
<rect x="288" y="392" width="840" height="6" rx="3" class="range-track"/>
<rect x="288.09" y="392" width="142.49" height="6" rx="3" fill="#16a34a" class="node-range" data-task-id="T1"/>
</g>
<g id="node-T2" class="task-card" data-task-id="T2" data-depth="0" data-start-offset-ms="50766" data-finish-offset-ms="156591">
<rect x="270" y="428" width="876" height="164" rx="14" fill="#f0fdf4" stroke="#16a34a" stroke-width="1.5"/>
<text x="288" y="456" class="node-title">[Task] 形成补货候选与商业选择 · T2</text>
<rect x="1052" y="441" width="76" height="24" rx="12" fill="#16a34a" opacity=".13"/>
<text x="1090" y="458" class="status-label" text-anchor="middle" fill="#14532d">✓ 成功</text>
<text x="288" y="482" class="node-meta">#6 · 子树汇总 · +00:50.766 → +02:36.591 · 实际历时 1m46s</text>
<text x="288" y="508" class="node-metric">LLM调用累计 1m00s（调用端实测） · 脚本累计 45s（宿主实测）</text>
<text x="288" y="533" class="node-metric">工具累计 未采集 · 等待累计 未采集 · Token ≈入 1.7k / 出 320</text>
<text x="288" y="556" class="node-result">结果：补货候选与商业选择通过验收</text>
<rect x="288" y="578" width="840" height="6" rx="3" class="range-track"/>
<rect x="430.76" y="578" width="297.59" height="6" rx="3" fill="#16a34a" class="node-range" data-task-id="T2"/>
</g>
<g id="node-T3" class="task-card" data-task-id="T3" data-depth="0" data-start-offset-ms="156654" data-finish-offset-ms="242877">
<rect x="270" y="614" width="876" height="164" rx="14" fill="#f0fdf4" stroke="#16a34a" stroke-width="1.5"/>
<text x="288" y="642" class="node-title">[Task] 确认供应商与仓配可执行性 · T3</text>
<rect x="1052" y="627" width="76" height="24" rx="12" fill="#16a34a" opacity=".13"/>
<text x="1090" y="644" class="status-label" text-anchor="middle" fill="#14532d">✓ 成功</text>
<text x="288" y="668" class="node-meta">#13 · 子树汇总 · +02:36.654 → +04:02.877 · 实际历时 1m26s</text>
<text x="288" y="694" class="node-metric">LLM调用累计 未采集 · 脚本累计 25s（宿主实测）</text>
<text x="288" y="719" class="node-metric">工具累计 35s（宿主实测） · 等待累计 25s（宿主实测） · Token 未采集</text>
<text x="288" y="742" class="node-result">结果：供应商与仓配可执行性通过验收</text>
<rect x="288" y="764" width="840" height="6" rx="3" class="range-track"/>
<rect x="728.53" y="764" width="242.47" height="6" rx="3" fill="#16a34a" class="node-range" data-task-id="T3"/>
</g>
<g id="node-T4" class="task-card" data-task-id="T4" data-depth="0" data-start-offset-ms="242950" data-finish-offset-ms="298634">
<rect x="270" y="800" width="876" height="164" rx="14" fill="#f0fdf4" stroke="#16a34a" stroke-width="1.5"/>
<text x="288" y="828" class="node-title">[Task] 交付补货决策与验收包 · T4</text>
<rect x="1052" y="813" width="76" height="24" rx="12" fill="#16a34a" opacity=".13"/>
<text x="1090" y="830" class="status-label" text-anchor="middle" fill="#14532d">✓ 成功</text>
<text x="288" y="854" class="node-meta">#20 · 子树汇总 · +04:02.950 → +04:58.634 · 实际历时 56s</text>
<text x="288" y="880" class="node-metric">LLM调用累计 20s（调用端实测） · 脚本累计 35s（宿主实测）</text>
<text x="288" y="905" class="node-metric">工具累计 未采集 · 等待累计 未采集 · Token ≈入 1.1k / 出 220</text>
<text x="288" y="928" class="node-result">结果：补货决策与验收包交付完成</text>
<rect x="288" y="950" width="840" height="6" rx="3" class="range-track"/>
<rect x="971.21" y="950" width="156.59" height="6" rx="3" fill="#16a34a" class="node-range" data-task-id="T4"/>
</g>
<line x1="32" y1="980" x2="1148" y2="980" stroke="#e2e8f0"/>
<text x="32" y="1004" class="legend">Mission 结束 +04:58.705 · 纵向行距不代表持续时间；精确时间由刻度、节点起止值及统一比例时间条表达。</text>
<text x="32" y="1028" class="legend">投影视图省略 20 个真实节点；Standard/Audit 可查看完整拓扑。</text>
</svg>
