<?xml version="1.0" encoding="UTF-8"?>
<svg xmlns="http://www.w3.org/2000/svg" width="1180" height="5112" viewBox="0 0 1180 5112" role="img" aria-labelledby="tplan-title tplan-desc" data-layout="vertical-execution-timeline" data-view="standard" data-schema-version="tplan.execution_cost_tree.v0.5">
<title id="tplan-title">周末补货与仓配可执行性决策 · TPlan 纵向实际执行时间轴</title>
<desc id="tplan-desc">纵向按首次观测时间排列真实任务节点；左侧刻度显示相对追踪起点的时间，卡片底部时间条按统一观测窗口等比例显示节点起止范围，蓝色折线保留真实父子关系。</desc>
<style>
text{font-family:-apple-system,BlinkMacSystemFont,'Segoe UI','PingFang SC','Microsoft YaHei',sans-serif}
.report-title{font-size:22px;font-weight:700;fill:#ffffff}
.mission-title{font-size:18px;font-weight:650;fill:#dbeafe}
.mission-meta{font-size:14px;fill:#dbeafe}
.legend{font-size:13px;fill:#475569}
.time-label{font-size:12px;font-variant-numeric:tabular-nums;fill:#475569}
.node-title{font-size:15px;font-weight:650;fill:#0f172a}
.node-meta{font-size:12.5px;fill:#475569}
.node-metric{font-size:13px;fill:#1e293b}
.node-result{font-size:12.5px;fill:#334155}
.status-label{font-size:12px;font-weight:650}
.tree-edge{fill:none;stroke:#3b82f6;stroke-width:1.6;opacity:.72}
.time-guide{stroke:#cbd5e1;stroke-width:1;stroke-dasharray:3 5}
.axis{stroke:#64748b;stroke-width:2}
.range-track{fill:#e2e8f0}
</style>
<rect width="1180" height="5112" fill="#f8fafc"/>
<rect x="32" y="24" width="1116" height="168" rx="18" fill="#172554" stroke="#2563eb" stroke-width="2"/>
<text x="58" y="58" class="report-title">TPlan 纵向实际执行时间轴</text>
<text x="58" y="88" class="mission-title">周末补货与仓配可执行性决策</text>
<text x="58" y="116" class="mission-meta">Mission · 成功 · 实际历时 4m59s</text>
<text x="58" y="140" class="mission-meta">LLM调用累计 1m20s（调用端实测） · 脚本累计 2m36s（宿主实测） · 工具累计 35s（宿主实测） · 等待累计 25s（宿主实测）</text>
<text x="58" y="164" class="mission-meta">未被精确记录 2.9s · Token ≈入 2.8k / 出 540 · 真实节点 24/24 · 覆盖 exact · standard</text>
<text x="32" y="220" class="legend">纵向按首次执行排序；左侧是实际相对时间，卡片底部时间条统一按观测窗口等比例。蓝线表示真实父子关系。</text>
<line x1="112" y1="331.0" x2="112" y2="4931.0" class="axis"/>
<line x1="120" y1="331.0" x2="260" y2="331.0" class="time-guide"/>
<circle cx="112" cy="331.0" r="5" fill="#ffffff" stroke="#475569" stroke-width="2"/>
<text x="100" y="335.0" class="time-label" text-anchor="end">+00:00.033</text>
<line x1="120" y1="531.0" x2="286" y2="531.0" class="time-guide"/>
<circle cx="112" cy="531.0" r="5" fill="#ffffff" stroke="#475569" stroke-width="2"/>
<text x="100" y="535.0" class="time-label" text-anchor="end">+00:00.066</text>
<line x1="120" y1="731.0" x2="312" y2="731.0" class="time-guide"/>
<circle cx="112" cy="731.0" r="5" fill="#ffffff" stroke="#475569" stroke-width="2"/>
<text x="100" y="735.0" class="time-label" text-anchor="end">+00:00.098</text>
<line x1="120" y1="931.0" x2="312" y2="931.0" class="time-guide"/>
<circle cx="112" cy="931.0" r="5" fill="#ffffff" stroke="#475569" stroke-width="2"/>
<text x="100" y="935.0" class="time-label" text-anchor="end">+00:15.301</text>
<line x1="120" y1="1131.0" x2="312" y2="1131.0" class="time-guide"/>
<circle cx="112" cy="1131.0" r="5" fill="#ffffff" stroke="#475569" stroke-width="2"/>
<text x="100" y="1135.0" class="time-label" text-anchor="end">+00:30.482</text>
<line x1="120" y1="1331.0" x2="260" y2="1331.0" class="time-guide"/>
<circle cx="112" cy="1331.0" r="5" fill="#ffffff" stroke="#475569" stroke-width="2"/>
<text x="100" y="1335.0" class="time-label" text-anchor="end">+00:50.766</text>
<line x1="120" y1="1531.0" x2="286" y2="1531.0" class="time-guide"/>
<circle cx="112" cy="1531.0" r="5" fill="#ffffff" stroke="#475569" stroke-width="2"/>
<text x="100" y="1535.0" class="time-label" text-anchor="end">+00:50.798</text>
<line x1="120" y1="1731.0" x2="312" y2="1731.0" class="time-guide"/>
<circle cx="112" cy="1731.0" r="5" fill="#ffffff" stroke="#475569" stroke-width="2"/>
<text x="100" y="1735.0" class="time-label" text-anchor="end">+00:50.829</text>
<line x1="120" y1="1931.0" x2="312" y2="1931.0" class="time-guide"/>
<circle cx="112" cy="1931.0" r="5" fill="#ffffff" stroke="#475569" stroke-width="2"/>
<text x="100" y="1935.0" class="time-label" text-anchor="end">+01:25.941</text>
<line x1="120" y1="2131.0" x2="286" y2="2131.0" class="time-guide"/>
<circle cx="112" cy="2131.0" r="5" fill="#ffffff" stroke="#475569" stroke-width="2"/>
<text x="100" y="2135.0" class="time-label" text-anchor="end">+01:51.199</text>
<line x1="120" y1="2331.0" x2="312" y2="2331.0" class="time-guide"/>
<circle cx="112" cy="2331.0" r="5" fill="#ffffff" stroke="#475569" stroke-width="2"/>
<text x="100" y="2335.0" class="time-label" text-anchor="end">+01:51.246</text>
<line x1="120" y1="2531.0" x2="312" y2="2531.0" class="time-guide"/>
<circle cx="112" cy="2531.0" r="5" fill="#ffffff" stroke="#475569" stroke-width="2"/>
<text x="100" y="2535.0" class="time-label" text-anchor="end">+02:16.378</text>
<line x1="120" y1="2731.0" x2="260" y2="2731.0" class="time-guide"/>
<circle cx="112" cy="2731.0" r="5" fill="#ffffff" stroke="#475569" stroke-width="2"/>
<text x="100" y="2735.0" class="time-label" text-anchor="end">+02:36.654</text>
<line x1="120" y1="2931.0" x2="286" y2="2931.0" class="time-guide"/>
<circle cx="112" cy="2931.0" r="5" fill="#ffffff" stroke="#475569" stroke-width="2"/>
<text x="100" y="2935.0" class="time-label" text-anchor="end">+02:36.686</text>
<line x1="120" y1="3131.0" x2="312" y2="3131.0" class="time-guide"/>
<circle cx="112" cy="3131.0" r="5" fill="#ffffff" stroke="#475569" stroke-width="2"/>
<text x="100" y="3135.0" class="time-label" text-anchor="end">+02:36.716</text>
<line x1="120" y1="3331.0" x2="312" y2="3331.0" class="time-guide"/>
<circle cx="112" cy="3331.0" r="5" fill="#ffffff" stroke="#475569" stroke-width="2"/>
<text x="100" y="3335.0" class="time-label" text-anchor="end">+02:56.921</text>
<line x1="120" y1="3531.0" x2="286" y2="3531.0" class="time-guide"/>
<circle cx="112" cy="3531.0" r="5" fill="#ffffff" stroke="#475569" stroke-width="2"/>
<text x="100" y="3535.0" class="time-label" text-anchor="end">+03:22.175</text>
<line x1="120" y1="3731.0" x2="312" y2="3731.0" class="time-guide"/>
<circle cx="112" cy="3731.0" r="5" fill="#ffffff" stroke="#475569" stroke-width="2"/>
<text x="100" y="3735.0" class="time-label" text-anchor="end">+03:22.220</text>
<line x1="120" y1="3931.0" x2="312" y2="3931.0" class="time-guide"/>
<circle cx="112" cy="3931.0" r="5" fill="#ffffff" stroke="#475569" stroke-width="2"/>
<text x="100" y="3935.0" class="time-label" text-anchor="end">+03:47.611</text>
<line x1="120" y1="4131.0" x2="260" y2="4131.0" class="time-guide"/>
<circle cx="112" cy="4131.0" r="5" fill="#ffffff" stroke="#475569" stroke-width="2"/>
<text x="100" y="4135.0" class="time-label" text-anchor="end">+04:02.950</text>
<line x1="120" y1="4331.0" x2="286" y2="4331.0" class="time-guide"/>
<circle cx="112" cy="4331.0" r="5" fill="#ffffff" stroke="#475569" stroke-width="2"/>
<text x="100" y="4335.0" class="time-label" text-anchor="end">+04:02.985</text>
<line x1="120" y1="4531.0" x2="312" y2="4531.0" class="time-guide"/>
<circle cx="112" cy="4531.0" r="5" fill="#ffffff" stroke="#475569" stroke-width="2"/>
<text x="100" y="4535.0" class="time-label" text-anchor="end">+04:03.020</text>
<line x1="120" y1="4731.0" x2="312" y2="4731.0" class="time-guide"/>
<circle cx="112" cy="4731.0" r="5" fill="#ffffff" stroke="#475569" stroke-width="2"/>
<text x="100" y="4735.0" class="time-label" text-anchor="end">+04:23.149</text>
<line x1="120" y1="4931.0" x2="312" y2="4931.0" class="time-guide"/>
<circle cx="112" cy="4931.0" r="5" fill="#ffffff" stroke="#475569" stroke-width="2"/>
<text x="100" y="4935.0" class="time-label" text-anchor="end">+04:43.369</text>
<path d="M 242 192 V 331.0 H 270" class="tree-edge" data-tree-from="mission" data-tree-to="T1"/>
<path d="M 270 331.0 H 252 V 531.0 H 296" class="tree-edge" data-tree-from="T1" data-tree-to="S1.1"/>
<path d="M 296 531.0 H 278 V 731.0 H 322" class="tree-edge" data-tree-from="S1.1" data-tree-to="P1.1.1"/>
<path d="M 296 531.0 H 278 V 931.0 H 322" class="tree-edge" data-tree-from="S1.1" data-tree-to="P1.1.2"/>
<path d="M 296 531.0 H 278 V 1131.0 H 322" class="tree-edge" data-tree-from="S1.1" data-tree-to="P1.1.3"/>
<path d="M 242 192 V 1331.0 H 270" class="tree-edge" data-tree-from="mission" data-tree-to="T2"/>
<path d="M 270 1331.0 H 252 V 1531.0 H 296" class="tree-edge" data-tree-from="T2" data-tree-to="S2.1"/>
<path d="M 296 1531.0 H 278 V 1731.0 H 322" class="tree-edge" data-tree-from="S2.1" data-tree-to="P2.1.1"/>
<path d="M 296 1531.0 H 278 V 1931.0 H 322" class="tree-edge" data-tree-from="S2.1" data-tree-to="P2.1.2"/>
<path d="M 270 1331.0 H 252 V 2131.0 H 296" class="tree-edge" data-tree-from="T2" data-tree-to="S2.2"/>
<path d="M 296 2131.0 H 278 V 2331.0 H 322" class="tree-edge" data-tree-from="S2.2" data-tree-to="P2.2.1"/>
<path d="M 296 2131.0 H 278 V 2531.0 H 322" class="tree-edge" data-tree-from="S2.2" data-tree-to="P2.2.2"/>
<path d="M 242 192 V 2731.0 H 270" class="tree-edge" data-tree-from="mission" data-tree-to="T3"/>
<path d="M 270 2731.0 H 252 V 2931.0 H 296" class="tree-edge" data-tree-from="T3" data-tree-to="S3.1"/>
<path d="M 296 2931.0 H 278 V 3131.0 H 322" class="tree-edge" data-tree-from="S3.1" data-tree-to="P3.1.1"/>
<path d="M 296 2931.0 H 278 V 3331.0 H 322" class="tree-edge" data-tree-from="S3.1" data-tree-to="P3.1.2"/>
<path d="M 270 2731.0 H 252 V 3531.0 H 296" class="tree-edge" data-tree-from="T3" data-tree-to="S3.2"/>
<path d="M 296 3531.0 H 278 V 3731.0 H 322" class="tree-edge" data-tree-from="S3.2" data-tree-to="P3.2.1"/>
<path d="M 296 3531.0 H 278 V 3931.0 H 322" class="tree-edge" data-tree-from="S3.2" data-tree-to="P3.2.2"/>
<path d="M 242 192 V 4131.0 H 270" class="tree-edge" data-tree-from="mission" data-tree-to="T4"/>
<path d="M 270 4131.0 H 252 V 4331.0 H 296" class="tree-edge" data-tree-from="T4" data-tree-to="S4.1"/>
<path d="M 296 4331.0 H 278 V 4531.0 H 322" class="tree-edge" data-tree-from="S4.1" data-tree-to="P4.1.1"/>
<path d="M 296 4331.0 H 278 V 4731.0 H 322" class="tree-edge" data-tree-from="S4.1" data-tree-to="P4.1.2"/>
<path d="M 296 4331.0 H 278 V 4931.0 H 322" class="tree-edge" data-tree-from="S4.1" data-tree-to="P4.1.3"/>
<g id="node-T1" class="task-card" data-task-id="T1" data-depth="0" data-start-offset-ms="33" data-finish-offset-ms="50703">
<rect x="270" y="242" width="876" height="178" rx="14" fill="#f0fdf4" stroke="#16a34a" stroke-width="1.5"/>
<text x="288" y="270" class="node-title">[Task] 建立库存与销售基线 · T1</text>
<rect x="1052" y="255" width="76" height="24" rx="12" fill="#16a34a" opacity=".13"/>
<text x="1090" y="272" class="status-label" text-anchor="middle" fill="#14532d">✓ 成功</text>
<text x="288" y="296" class="node-meta">#1 · 子树汇总</text>
<text x="288" y="321" class="node-metric">时间 +00:00.033 → +00:50.703 · 实际历时 51s · 未被精确记录 492ms</text>
<text x="288" y="346" class="node-metric">LLM调用累计 未采集 · 脚本累计 50s（宿主实测）</text>
<text x="288" y="371" class="node-metric">工具累计 未采集 · 等待累计 未采集 · Token 未采集</text>
<text x="288" y="393" class="node-result">结果：经营数据基线通过验收</text>
<rect x="288" y="406" width="840" height="6" rx="3" class="range-track"/>
<rect x="288.09" y="406" width="142.49" height="6" rx="3" fill="#16a34a" class="node-range" data-task-id="T1"/>
</g>
<g id="node-S1.1" class="task-card" data-task-id="S1.1" data-depth="1" data-start-offset-ms="66" data-finish-offset-ms="50671">
<rect x="296" y="442" width="850" height="178" rx="14" fill="#f0fdf4" stroke="#16a34a" stroke-width="1.5"/>
<text x="314" y="470" class="node-title">[SubTask] 准备 SKU 经营快照 · S1.1</text>
<rect x="1052" y="455" width="76" height="24" rx="12" fill="#16a34a" opacity=".13"/>
<text x="1090" y="472" class="status-label" text-anchor="middle" fill="#14532d">✓ 成功</text>
<text x="314" y="496" class="node-meta">#2 · 子树汇总</text>
<text x="314" y="521" class="node-metric">时间 +00:00.066 → +00:50.671 · 实际历时 51s · 未被精确记录 427ms</text>
<text x="314" y="546" class="node-metric">LLM调用累计 未采集 · 脚本累计 50s（宿主实测）</text>
<text x="314" y="571" class="node-metric">工具累计 未采集 · 等待累计 未采集 · Token 未采集</text>
<text x="314" y="593" class="node-result">结果：SKU 快照、质量检查和覆盖基线均已完成</text>
<rect x="314" y="606" width="814" height="6" rx="3" class="range-track"/>
<rect x="314.18" y="606" width="137.90" height="6" rx="3" fill="#16a34a" class="node-range" data-task-id="S1.1"/>
</g>
<g id="node-P1.1.1" class="task-card" data-task-id="P1.1.1" data-depth="2" data-start-offset-ms="98" data-finish-offset-ms="15270">
<rect x="322" y="642" width="824" height="178" rx="14" fill="#f0fdf4" stroke="#16a34a" stroke-width="1.5"/>
<text x="340" y="670" class="node-title">[Step] 生成 SKU 销售库存快照 · P1.1.1</text>
<rect x="1052" y="655" width="76" height="24" rx="12" fill="#16a34a" opacity=".13"/>
<text x="1090" y="672" class="status-label" text-anchor="middle" fill="#14532d">✓ 成功</text>
<text x="340" y="696" class="node-meta">#3 · 直接成本</text>
<text x="340" y="721" class="node-metric">时间 +00:00.098 → +00:15.270 · 实际历时 15s · 未被精确记录 109ms</text>
<text x="340" y="746" class="node-metric">LLM调用累计 未采集 · 脚本累计 15s（宿主实测）</text>
<text x="340" y="771" class="node-metric">工具累计 未采集 · 等待累计 未采集 · Token 未采集</text>
<text x="340" y="793" class="node-result">结果：六个 SKU 的销售库存快照已生成</text>
<rect x="340" y="806" width="788" height="6" rx="3" class="range-track"/>
<rect x="340.26" y="806" width="40.02" height="6" rx="3" fill="#16a34a" class="node-range" data-task-id="P1.1.1"/>
</g>
<g id="node-P1.1.2" class="task-card" data-task-id="P1.1.2" data-depth="2" data-start-offset-ms="15301" data-finish-offset-ms="30446">
<rect x="322" y="842" width="824" height="178" rx="14" fill="#f0fdf4" stroke="#16a34a" stroke-width="1.5"/>
<text x="340" y="870" class="node-title">[Step] 核对字段与库存勾稽 · P1.1.2</text>
<rect x="1052" y="855" width="76" height="24" rx="12" fill="#16a34a" opacity=".13"/>
<text x="1090" y="872" class="status-label" text-anchor="middle" fill="#14532d">✓ 成功</text>
<text x="340" y="896" class="node-meta">#4 · 直接成本</text>
<text x="340" y="921" class="node-metric">时间 +00:15.301 → +00:30.446 · 实际历时 15s · 未被精确记录 90ms</text>
<text x="340" y="946" class="node-metric">LLM调用累计 未采集 · 脚本累计 15s（宿主实测）</text>
<text x="340" y="971" class="node-metric">工具累计 未采集 · 等待累计 未采集 · Token 未采集</text>
<text x="340" y="993" class="node-result">结果：六行快照通过字段和非负值检查</text>
<rect x="340" y="1006" width="788" height="6" rx="3" class="range-track"/>
<rect x="380.36" y="1006" width="39.95" height="6" rx="3" fill="#16a34a" class="node-range" data-task-id="P1.1.2"/>
</g>
<g id="node-P1.1.3" class="task-card" data-task-id="P1.1.3" data-depth="2" data-start-offset-ms="30482" data-finish-offset-ms="50639">
<rect x="322" y="1042" width="824" height="178" rx="14" fill="#f0fdf4" stroke="#16a34a" stroke-width="1.5"/>
<text x="340" y="1070" class="node-title">[Step] 计算库存覆盖与缺货窗口 · P1.1.3</text>
<rect x="1052" y="1055" width="76" height="24" rx="12" fill="#16a34a" opacity=".13"/>
<text x="1090" y="1072" class="status-label" text-anchor="middle" fill="#14532d">✓ 成功</text>
<text x="340" y="1096" class="node-meta">#5 · 直接成本</text>
<text x="340" y="1121" class="node-metric">时间 +00:30.482 → +00:50.639 · 实际历时 20s · 未被精确记录 97ms</text>
<text x="340" y="1146" class="node-metric">LLM调用累计 未采集 · 脚本累计 20s（宿主实测）</text>
<text x="340" y="1171" class="node-metric">工具累计 未采集 · 等待累计 未采集 · Token 未采集</text>
<text x="340" y="1193" class="node-result">结果：库存覆盖天数和风险窗口已形成</text>
<rect x="340" y="1206" width="788" height="6" rx="3" class="range-track"/>
<rect x="420.41" y="1206" width="53.18" height="6" rx="3" fill="#16a34a" class="node-range" data-task-id="P1.1.3"/>
</g>
<g id="node-T2" class="task-card" data-task-id="T2" data-depth="0" data-start-offset-ms="50766" data-finish-offset-ms="156591">
<rect x="270" y="1242" width="876" height="178" rx="14" fill="#f0fdf4" stroke="#16a34a" stroke-width="1.5"/>
<text x="288" y="1270" class="node-title">[Task] 形成补货候选与商业选择 · T2</text>
<rect x="1052" y="1255" width="76" height="24" rx="12" fill="#16a34a" opacity=".13"/>
<text x="1090" y="1272" class="status-label" text-anchor="middle" fill="#14532d">✓ 成功</text>
<text x="288" y="1296" class="node-meta">#6 · 子树汇总</text>
<text x="288" y="1321" class="node-metric">时间 +00:50.766 → +02:36.591 · 实际历时 1m46s · 未被精确记录 646ms</text>
<text x="288" y="1346" class="node-metric">LLM调用累计 1m00s（调用端实测） · 脚本累计 45s（宿主实测）</text>
<text x="288" y="1371" class="node-metric">工具累计 未采集 · 等待累计 未采集 · Token ≈入 1.7k / 出 320</text>
<text x="288" y="1393" class="node-result">结果：补货候选与商业选择通过验收</text>
<rect x="288" y="1406" width="840" height="6" rx="3" class="range-track"/>
<rect x="430.76" y="1406" width="297.59" height="6" rx="3" fill="#16a34a" class="node-range" data-task-id="T2"/>
</g>
<g id="node-S2.1" class="task-card" data-task-id="S2.1" data-depth="1" data-start-offset-ms="50798" data-finish-offset-ms="111160">
<rect x="296" y="1442" width="850" height="178" rx="14" fill="#f0fdf4" stroke="#16a34a" stroke-width="1.5"/>
<text x="314" y="1470" class="node-title">[SubTask] 评估 SKU 断货风险 · S2.1</text>
<rect x="1052" y="1455" width="76" height="24" rx="12" fill="#16a34a" opacity=".13"/>
<text x="1090" y="1472" class="status-label" text-anchor="middle" fill="#14532d">✓ 成功</text>
<text x="314" y="1496" class="node-meta">#7 · 子树汇总</text>
<text x="314" y="1521" class="node-metric">时间 +00:50.798 → +01:51.160 · 实际历时 1m00s · 未被精确记录 267ms</text>
<text x="314" y="1546" class="node-metric">LLM调用累计 35s（调用端实测） · 脚本累计 25s（宿主实测）</text>
<text x="314" y="1571" class="node-metric">工具累计 未采集 · 等待累计 未采集 · Token ≈入 980 / 出 180</text>
<text x="314" y="1593" class="node-result">结果：断货风险和候选数量已形成</text>
<rect x="314" y="1606" width="814" height="6" rx="3" class="range-track"/>
<rect x="452.43" y="1606" width="164.49" height="6" rx="3" fill="#16a34a" class="node-range" data-task-id="S2.1"/>
</g>
<g id="node-P2.1.1" class="task-card" data-task-id="P2.1.1" data-depth="2" data-start-offset-ms="50829" data-finish-offset-ms="85905">
<rect x="322" y="1642" width="824" height="178" rx="14" fill="#f0fdf4" stroke="#16a34a" stroke-width="1.5"/>
<text x="340" y="1670" class="node-title">[Step] 解释高风险 SKU 与经营影响 · P2.1.1</text>
<rect x="1052" y="1655" width="76" height="24" rx="12" fill="#16a34a" opacity=".13"/>
<text x="1090" y="1672" class="status-label" text-anchor="middle" fill="#14532d">✓ 成功</text>
<text x="340" y="1696" class="node-meta">#8 · 直接成本</text>
<text x="340" y="1721" class="node-metric">时间 +00:50.829 → +01:25.905 · 实际历时 35s · 未被精确记录 51ms</text>
<text x="340" y="1746" class="node-metric">LLM调用累计 35s（调用端实测） · 脚本累计 未采集</text>
<text x="340" y="1771" class="node-metric">工具累计 未采集 · 等待累计 未采集 · Token ≈入 980 / 出 180</text>
<text x="340" y="1793" class="node-result">结果：高风险 SKU 与经营影响解释已形成</text>
<rect x="340" y="1806" width="788" height="6" rx="3" class="range-track"/>
<rect x="474.09" y="1806" width="92.53" height="6" rx="3" fill="#16a34a" class="node-range" data-task-id="P2.1.1"/>
</g>
<g id="node-P2.1.2" class="task-card" data-task-id="P2.1.2" data-depth="2" data-start-offset-ms="85941" data-finish-offset-ms="111123">
<rect x="322" y="1842" width="824" height="178" rx="14" fill="#f0fdf4" stroke="#16a34a" stroke-width="1.5"/>
<text x="340" y="1870" class="node-title">[Step] 计算首轮候选补货量 · P2.1.2</text>
<rect x="1052" y="1855" width="76" height="24" rx="12" fill="#16a34a" opacity=".13"/>
<text x="1090" y="1872" class="status-label" text-anchor="middle" fill="#14532d">✓ 成功</text>
<text x="340" y="1896" class="node-meta">#9 · 直接成本</text>
<text x="340" y="1921" class="node-metric">时间 +01:25.941 → +01:51.123 · 实际历时 25s · 未被精确记录 112ms</text>
<text x="340" y="1946" class="node-metric">LLM调用累计 未采集 · 脚本累计 25s（宿主实测）</text>
<text x="340" y="1971" class="node-metric">工具累计 未采集 · 等待累计 未采集 · Token 未采集</text>
<text x="340" y="1993" class="node-result">结果：首轮候选补货量已生成</text>
<rect x="340" y="2006" width="788" height="6" rx="3" class="range-track"/>
<rect x="566.72" y="2006" width="66.43" height="6" rx="3" fill="#16a34a" class="node-range" data-task-id="P2.1.2"/>
</g>
<g id="node-S2.2" class="task-card" data-task-id="S2.2" data-depth="1" data-start-offset-ms="111199" data-finish-offset-ms="156560">
<rect x="296" y="2042" width="850" height="178" rx="14" fill="#f0fdf4" stroke="#16a34a" stroke-width="1.5"/>
<text x="314" y="2070" class="node-title">[SubTask] 选择资金约束内方案 · S2.2</text>
<rect x="1052" y="2055" width="76" height="24" rx="12" fill="#16a34a" opacity=".13"/>
<text x="1090" y="2072" class="status-label" text-anchor="middle" fill="#14532d">✓ 成功</text>
<text x="314" y="2096" class="node-meta">#10 · 子树汇总</text>
<text x="314" y="2121" class="node-metric">时间 +01:51.199 → +02:36.560 · 实际历时 45s · 未被精确记录 277ms</text>
<text x="314" y="2146" class="node-metric">LLM调用累计 25s（调用端实测） · 脚本累计 20s（宿主实测）</text>
<text x="314" y="2171" class="node-metric">工具累计 未采集 · 等待累计 未采集 · Token ≈入 760 / 出 140</text>
<text x="314" y="2193" class="node-result">结果：资金约束内的补货方案已选择</text>
<rect x="314" y="2206" width="814" height="6" rx="3" class="range-track"/>
<rect x="617.03" y="2206" width="123.61" height="6" rx="3" fill="#16a34a" class="node-range" data-task-id="S2.2"/>
</g>
<g id="node-P2.2.1" class="task-card" data-task-id="P2.2.1" data-depth="2" data-start-offset-ms="111246" data-finish-offset-ms="136345">
<rect x="322" y="2242" width="824" height="178" rx="14" fill="#f0fdf4" stroke="#16a34a" stroke-width="1.5"/>
<text x="340" y="2270" class="node-title">[Step] 比较保守、平衡与进取方案 · P2.2.1</text>
<rect x="1052" y="2255" width="76" height="24" rx="12" fill="#16a34a" opacity=".13"/>
<text x="1090" y="2272" class="status-label" text-anchor="middle" fill="#14532d">✓ 成功</text>
<text x="340" y="2296" class="node-meta">#11 · 直接成本</text>
<text x="340" y="2321" class="node-metric">时间 +01:51.246 → +02:16.345 · 实际历时 25s · 未被精确记录 73ms</text>
<text x="340" y="2346" class="node-metric">LLM调用累计 25s（调用端实测） · 脚本累计 未采集</text>
<text x="340" y="2371" class="node-metric">工具累计 未采集 · 等待累计 未采集 · Token ≈入 760 / 出 140</text>
<text x="340" y="2393" class="node-result">结果：保守、平衡和进取方案已完成比较</text>
<rect x="340" y="2406" width="788" height="6" rx="3" class="range-track"/>
<rect x="633.47" y="2406" width="66.21" height="6" rx="3" fill="#16a34a" class="node-range" data-task-id="P2.2.1"/>
</g>
<g id="node-P2.2.2" class="task-card" data-task-id="P2.2.2" data-depth="2" data-start-offset-ms="136378" data-finish-offset-ms="156527">
<rect x="322" y="2442" width="824" height="178" rx="14" fill="#f0fdf4" stroke="#16a34a" stroke-width="1.5"/>
<text x="340" y="2470" class="node-title">[Step] 校验采购预算与库存上限 · P2.2.2</text>
<rect x="1052" y="2455" width="76" height="24" rx="12" fill="#16a34a" opacity=".13"/>
<text x="1090" y="2472" class="status-label" text-anchor="middle" fill="#14532d">✓ 成功</text>
<text x="340" y="2496" class="node-meta">#12 · 直接成本</text>
<text x="340" y="2521" class="node-metric">时间 +02:16.378 → +02:36.527 · 实际历时 20s · 未被精确记录 91ms</text>
<text x="340" y="2546" class="node-metric">LLM调用累计 未采集 · 脚本累计 20s（宿主实测）</text>
<text x="340" y="2571" class="node-metric">工具累计 未采集 · 等待累计 未采集 · Token 未采集</text>
<text x="340" y="2593" class="node-result">结果：平衡方案通过预算与仓容约束</text>
<rect x="340" y="2606" width="788" height="6" rx="3" class="range-track"/>
<rect x="699.77" y="2606" width="53.15" height="6" rx="3" fill="#16a34a" class="node-range" data-task-id="P2.2.2"/>
</g>
<g id="node-T3" class="task-card" data-task-id="T3" data-depth="0" data-start-offset-ms="156654" data-finish-offset-ms="242877">
<rect x="270" y="2642" width="876" height="178" rx="14" fill="#f0fdf4" stroke="#16a34a" stroke-width="1.5"/>
<text x="288" y="2670" class="node-title">[Task] 确认供应商与仓配可执行性 · T3</text>
<rect x="1052" y="2655" width="76" height="24" rx="12" fill="#16a34a" opacity=".13"/>
<text x="1090" y="2672" class="status-label" text-anchor="middle" fill="#14532d">✓ 成功</text>
<text x="288" y="2696" class="node-meta">#13 · 子树汇总</text>
<text x="288" y="2721" class="node-metric">时间 +02:36.654 → +04:02.877 · 实际历时 1m26s · 未被精确记录 938ms</text>
<text x="288" y="2746" class="node-metric">LLM调用累计 未采集 · 脚本累计 25s（宿主实测）</text>
<text x="288" y="2771" class="node-metric">工具累计 35s（宿主实测） · 等待累计 25s（宿主实测） · Token 未采集</text>
<text x="288" y="2793" class="node-result">结果：供应商与仓配可执行性通过验收</text>
<rect x="288" y="2806" width="840" height="6" rx="3" class="range-track"/>
<rect x="728.53" y="2806" width="242.47" height="6" rx="3" fill="#16a34a" class="node-range" data-task-id="T3"/>
</g>
<g id="node-S3.1" class="task-card" data-task-id="S3.1" data-depth="1" data-start-offset-ms="156686" data-finish-offset-ms="202118">
<rect x="296" y="2842" width="850" height="178" rx="14" fill="#f0fdf4" stroke="#16a34a" stroke-width="1.5"/>
<text x="314" y="2870" class="node-title">[SubTask] 获取供应商承诺 · S3.1</text>
<rect x="1052" y="2855" width="76" height="24" rx="12" fill="#16a34a" opacity=".13"/>
<text x="1090" y="2872" class="status-label" text-anchor="middle" fill="#14532d">✓ 成功</text>
<text x="314" y="2896" class="node-meta">#14 · 子树汇总</text>
<text x="314" y="2921" class="node-metric">时间 +02:36.686 → +03:22.118 · 实际历时 45s · 未被精确记录 353ms</text>
<text x="314" y="2946" class="node-metric">LLM调用累计 未采集 · 脚本累计 未采集</text>
<text x="314" y="2971" class="node-metric">工具累计 20s（宿主实测） · 等待累计 25s（宿主实测） · Token 未采集</text>
<text x="314" y="2993" class="node-result">结果：报价、交期和库存锁定均已确认</text>
<rect x="314" y="3006" width="814" height="6" rx="3" class="range-track"/>
<rect x="740.98" y="3006" width="123.81" height="6" rx="3" fill="#16a34a" class="node-range" data-task-id="S3.1"/>
</g>
<g id="node-P3.1.1" class="task-card" data-task-id="P3.1.1" data-depth="2" data-start-offset-ms="156716" data-finish-offset-ms="176889">
<rect x="322" y="3042" width="824" height="178" rx="14" fill="#f0fdf4" stroke="#16a34a" stroke-width="1.5"/>
<text x="340" y="3070" class="node-title">[Step] 拉取供应商报价与交期 · P3.1.1</text>
<rect x="1052" y="3055" width="76" height="24" rx="12" fill="#16a34a" opacity=".13"/>
<text x="1090" y="3072" class="status-label" text-anchor="middle" fill="#14532d">✓ 成功</text>
<text x="340" y="3096" class="node-meta">#15 · 直接成本</text>
<text x="340" y="3121" class="node-metric">时间 +02:36.716 → +02:56.889 · 实际历时 20s · 未被精确记录 106ms</text>
<text x="340" y="3146" class="node-metric">LLM调用累计 未采集 · 脚本累计 未采集</text>
<text x="340" y="3171" class="node-metric">工具累计 20s（宿主实测） · 等待累计 未采集 · Token 未采集</text>
<text x="340" y="3193" class="node-result">结果：供应商报价与交期已返回</text>
<rect x="340" y="3206" width="788" height="6" rx="3" class="range-track"/>
<rect x="753.43" y="3206" width="53.22" height="6" rx="3" fill="#16a34a" class="node-range" data-task-id="P3.1.1"/>
</g>
<g id="node-P3.1.2" class="task-card" data-task-id="P3.1.2" data-depth="2" data-start-offset-ms="176921" data-finish-offset-ms="202032">
<rect x="322" y="3242" width="824" height="178" rx="14" fill="#f0fdf4" stroke="#16a34a" stroke-width="1.5"/>
<text x="340" y="3270" class="node-title">[Step] 等待供应商锁定库存 · P3.1.2</text>
<rect x="1052" y="3255" width="76" height="24" rx="12" fill="#16a34a" opacity=".13"/>
<text x="1090" y="3272" class="status-label" text-anchor="middle" fill="#14532d">✓ 成功</text>
<text x="340" y="3296" class="node-meta">#16 · 直接成本</text>
<text x="340" y="3321" class="node-metric">时间 +02:56.921 → +03:22.032 · 实际历时 25s · 未被精确记录 99ms</text>
<text x="340" y="3346" class="node-metric">LLM调用累计 未采集 · 脚本累计 未采集</text>
<text x="340" y="3371" class="node-metric">工具累计 未采集 · 等待累计 25s（宿主实测） · Token 未采集</text>
<text x="340" y="3393" class="node-result">结果：供应商已锁定关键 SKU 库存</text>
<rect x="340" y="3406" width="788" height="6" rx="3" class="range-track"/>
<rect x="806.73" y="3406" width="66.24" height="6" rx="3" fill="#16a34a" class="node-range" data-task-id="P3.1.2"/>
</g>
<g id="node-S3.2" class="task-card" data-task-id="S3.2" data-depth="1" data-start-offset-ms="202175" data-finish-offset-ms="242842">
<rect x="296" y="3442" width="850" height="178" rx="14" fill="#f0fdf4" stroke="#16a34a" stroke-width="1.5"/>
<text x="314" y="3470" class="node-title">[SubTask] 校验供应条款并预约仓容 · S3.2</text>
<rect x="1052" y="3455" width="76" height="24" rx="12" fill="#16a34a" opacity=".13"/>
<text x="1090" y="3472" class="status-label" text-anchor="middle" fill="#14532d">✓ 成功</text>
<text x="314" y="3496" class="node-meta">#17 · 子树汇总</text>
<text x="314" y="3521" class="node-metric">时间 +03:22.175 → +04:02.842 · 实际历时 41s · 未被精确记录 461ms</text>
<text x="314" y="3546" class="node-metric">LLM调用累计 未采集 · 脚本累计 25s（宿主实测）</text>
<text x="314" y="3571" class="node-metric">工具累计 15s（宿主实测） · 等待累计 未采集 · Token 未采集</text>
<text x="314" y="3593" class="node-result">结果：供应条款重试通过且仓容预约完成</text>
<rect x="314" y="3606" width="814" height="6" rx="3" class="range-track"/>
<rect x="864.95" y="3606" width="110.82" height="6" rx="3" fill="#16a34a" class="node-range" data-task-id="S3.2"/>
</g>
<g id="node-P3.2.1" class="task-card" data-task-id="P3.2.1" data-depth="2" data-start-offset-ms="202220" data-finish-offset-ms="227577">
<rect x="322" y="3642" width="824" height="178" rx="14" fill="#f0fdf4" stroke="#16a34a" stroke-width="1.5"/>
<text x="340" y="3670" class="node-title">[Step] 校验供应商交期条款并重试 · P3.2.1</text>
<rect x="1052" y="3655" width="76" height="24" rx="12" fill="#16a34a" opacity=".13"/>
<text x="1090" y="3672" class="status-label" text-anchor="middle" fill="#14532d">✓ 成功</text>
<text x="340" y="3696" class="node-meta">#18 · 直接成本 · 执行次数 2 · 错误 1</text>
<text x="340" y="3721" class="node-metric">时间 +03:22.220 → +03:47.577 · 实际历时 25s · 未被精确记录 224ms</text>
<text x="340" y="3746" class="node-metric">LLM调用累计 未采集 · 脚本累计 25s（宿主实测）</text>
<text x="340" y="3771" class="node-metric">工具累计 未采集 · 等待累计 未采集 · Token 未采集</text>
<text x="340" y="3793" class="node-result">结果：第一次缺少分批承诺，修正响应后重试通过</text>
<rect x="340" y="3806" width="788" height="6" rx="3" class="range-track"/>
<rect x="873.47" y="3806" width="66.89" height="6" rx="3" fill="#16a34a" class="node-range" data-task-id="P3.2.1"/>
</g>
<g id="node-P3.2.2" class="task-card" data-task-id="P3.2.2" data-depth="2" data-start-offset-ms="227611" data-finish-offset-ms="242804">
<rect x="322" y="3842" width="824" height="178" rx="14" fill="#f0fdf4" stroke="#16a34a" stroke-width="1.5"/>
<text x="340" y="3870" class="node-title">[Step] 预约到货仓容与卸货时段 · P3.2.2</text>
<rect x="1052" y="3855" width="76" height="24" rx="12" fill="#16a34a" opacity=".13"/>
<text x="1090" y="3872" class="status-label" text-anchor="middle" fill="#14532d">✓ 成功</text>
<text x="340" y="3896" class="node-meta">#19 · 直接成本</text>
<text x="340" y="3921" class="node-metric">时间 +03:47.611 → +04:02.804 · 实际历时 15s · 未被精确记录 120ms</text>
<text x="340" y="3946" class="node-metric">LLM调用累计 未采集 · 脚本累计 未采集</text>
<text x="340" y="3971" class="node-metric">工具累计 15s（宿主实测） · 等待累计 未采集 · Token 未采集</text>
<text x="340" y="3993" class="node-result">结果：仓容和卸货时段预约成功</text>
<rect x="340" y="4006" width="788" height="6" rx="3" class="range-track"/>
<rect x="940.45" y="4006" width="40.08" height="6" rx="3" fill="#16a34a" class="node-range" data-task-id="P3.2.2"/>
</g>
<g id="node-T4" class="task-card" data-task-id="T4" data-depth="0" data-start-offset-ms="242950" data-finish-offset-ms="298634">
<rect x="270" y="4042" width="876" height="178" rx="14" fill="#f0fdf4" stroke="#16a34a" stroke-width="1.5"/>
<text x="288" y="4070" class="node-title">[Task] 交付补货决策与验收包 · T4</text>
<rect x="1052" y="4055" width="76" height="24" rx="12" fill="#16a34a" opacity=".13"/>
<text x="1090" y="4072" class="status-label" text-anchor="middle" fill="#14532d">✓ 成功</text>
<text x="288" y="4096" class="node-meta">#20 · 子树汇总</text>
<text x="288" y="4121" class="node-metric">时间 +04:02.950 → +04:58.634 · 实际历时 56s · 未被精确记录 524ms</text>
<text x="288" y="4146" class="node-metric">LLM调用累计 20s（调用端实测） · 脚本累计 35s（宿主实测）</text>
<text x="288" y="4171" class="node-metric">工具累计 未采集 · 等待累计 未采集 · Token ≈入 1.1k / 出 220</text>
<text x="288" y="4193" class="node-result">结果：补货决策与验收包交付完成</text>
<rect x="288" y="4206" width="840" height="6" rx="3" class="range-track"/>
<rect x="971.21" y="4206" width="156.59" height="6" rx="3" fill="#16a34a" class="node-range" data-task-id="T4"/>
</g>
<g id="node-S4.1" class="task-card" data-task-id="S4.1" data-depth="1" data-start-offset-ms="242985" data-finish-offset-ms="298598">
<rect x="296" y="4242" width="850" height="178" rx="14" fill="#f0fdf4" stroke="#16a34a" stroke-width="1.5"/>
<text x="314" y="4270" class="node-title">[SubTask] 生成并核验补货简报 · S4.1</text>
<rect x="1052" y="4255" width="76" height="24" rx="12" fill="#16a34a" opacity=".13"/>
<text x="1090" y="4272" class="status-label" text-anchor="middle" fill="#14532d">✓ 成功</text>
<text x="314" y="4296" class="node-meta">#21 · 子树汇总</text>
<text x="314" y="4321" class="node-metric">时间 +04:02.985 → +04:58.598 · 实际历时 56s · 未被精确记录 453ms</text>
<text x="314" y="4346" class="node-metric">LLM调用累计 20s（调用端实测） · 脚本累计 35s（宿主实测）</text>
<text x="314" y="4371" class="node-metric">工具累计 未采集 · 等待累计 未采集 · Token ≈入 1.1k / 出 220</text>
<text x="314" y="4393" class="node-result">结果：补货简报与验收结果均已完成</text>
<rect x="314" y="4406" width="814" height="6" rx="3" class="range-track"/>
<rect x="976.16" y="4406" width="151.55" height="6" rx="3" fill="#16a34a" class="node-range" data-task-id="S4.1"/>
</g>
<g id="node-P4.1.1" class="task-card" data-task-id="P4.1.1" data-depth="2" data-start-offset-ms="243020" data-finish-offset-ms="263114">
<rect x="322" y="4442" width="824" height="178" rx="14" fill="#f0fdf4" stroke="#16a34a" stroke-width="1.5"/>
<text x="340" y="4470" class="node-title">[Step] 组织补货决策叙事 · P4.1.1</text>
<rect x="1052" y="4455" width="76" height="24" rx="12" fill="#16a34a" opacity=".13"/>
<text x="1090" y="4472" class="status-label" text-anchor="middle" fill="#14532d">✓ 成功</text>
<text x="340" y="4496" class="node-meta">#22 · 直接成本</text>
<text x="340" y="4521" class="node-metric">时间 +04:03.020 → +04:23.114 · 实际历时 20s · 未被精确记录 77ms</text>
<text x="340" y="4546" class="node-metric">LLM调用累计 20s（调用端实测） · 脚本累计 未采集</text>
<text x="340" y="4571" class="node-metric">工具累计 未采集 · 等待累计 未采集 · Token ≈入 1.1k / 出 220</text>
<text x="340" y="4593" class="node-result">结果：经营决策简报提纲已形成</text>
<rect x="340" y="4606" width="788" height="6" rx="3" class="range-track"/>
<rect x="981.10" y="4606" width="53.01" height="6" rx="3" fill="#16a34a" class="node-range" data-task-id="P4.1.1"/>
</g>
<g id="node-P4.1.2" class="task-card" data-task-id="P4.1.2" data-depth="2" data-start-offset-ms="263149" data-finish-offset-ms="283334">
<rect x="322" y="4642" width="824" height="178" rx="14" fill="#f0fdf4" stroke="#16a34a" stroke-width="1.5"/>
<text x="340" y="4670" class="node-title">[Step] 生成周末补货执行简报 · P4.1.2</text>
<rect x="1052" y="4655" width="76" height="24" rx="12" fill="#16a34a" opacity=".13"/>
<text x="1090" y="4672" class="status-label" text-anchor="middle" fill="#14532d">✓ 成功</text>
<text x="340" y="4696" class="node-meta">#23 · 直接成本</text>
<text x="340" y="4721" class="node-metric">时间 +04:23.149 → +04:43.334 · 实际历时 20s · 未被精确记录 112ms</text>
<text x="340" y="4746" class="node-metric">LLM调用累计 未采集 · 脚本累计 20s（宿主实测）</text>
<text x="340" y="4771" class="node-metric">工具累计 未采集 · 等待累计 未采集 · Token 未采集</text>
<text x="340" y="4793" class="node-result">结果：周末补货执行简报已生成</text>
<rect x="340" y="4806" width="788" height="6" rx="3" class="range-track"/>
<rect x="1034.20" y="4806" width="53.25" height="6" rx="3" fill="#16a34a" class="node-range" data-task-id="P4.1.2"/>
</g>
<g id="node-P4.1.3" class="task-card" data-task-id="P4.1.3" data-depth="2" data-start-offset-ms="283369" data-finish-offset-ms="298558">
<rect x="322" y="4842" width="824" height="178" rx="14" fill="#f0fdf4" stroke="#16a34a" stroke-width="1.5"/>
<text x="340" y="4870" class="node-title">[Step] 核对验收证据与遥测完整性 · P4.1.3</text>
<rect x="1052" y="4855" width="76" height="24" rx="12" fill="#16a34a" opacity=".13"/>
<text x="1090" y="4872" class="status-label" text-anchor="middle" fill="#14532d">✓ 成功</text>
<text x="340" y="4896" class="node-meta">#24 · 直接成本</text>
<text x="340" y="4921" class="node-metric">时间 +04:43.369 → +04:58.558 · 实际历时 15s · 未被精确记录 119ms</text>
<text x="340" y="4946" class="node-metric">LLM调用累计 未采集 · 脚本累计 15s（宿主实测）</text>
<text x="340" y="4971" class="node-metric">工具累计 未采集 · 等待累计 未采集 · Token 未采集</text>
<text x="340" y="4993" class="node-result">结果：A1 至 A4 业务验收检查全部通过</text>
<rect x="340" y="5006" width="788" height="6" rx="3" class="range-track"/>
<rect x="1087.54" y="5006" width="40.07" height="6" rx="3" fill="#16a34a" class="node-range" data-task-id="P4.1.3"/>
</g>
<line x1="32" y1="5036" x2="1148" y2="5036" stroke="#e2e8f0"/>
<text x="32" y="5060" class="legend">Mission 结束 +04:58.705 · 纵向行距不代表持续时间；精确时间由刻度、节点起止值及统一比例时间条表达。</text>
</svg>
